# xmcd CD database file
#
# Track frame offsets:
#	150
#	17375
#	37493
#	62028
#	77263
#	94258
#	117553
#	136778
#	158350
#	179225
#	200080
#	221025
#
# Disc length: 3178 seconds
#
# Revision: 0
# Processed by: cddbd v1.5.1PL0 Copyright (c) Steve Scherf et al.
# Submitted via: CDex 1.51
#
DISCID=a80c680c
DTITLE=青山陽一 - ODREL
DYEAR=2004
DGENRE=Rock
TTITLE0=Odrel
TTITLE1=Rainbow
TTITLE2=Sweet Home
TTITLE3=Los Angeles
TTITLE4=New Year Rock
TTITLE5=94(ninety-four)
TTITLE6=Tarantula
TTITLE7=Beautiful Fingers
TTITLE8=I Don't Know But You Know
TTITLE9=Free Bird
TTITLE10=Ultra Sonic Bicycle
TTITLE11=Are Domo
EXTD=YEAR: 2004
EXTT0=
EXTT1=
EXTT2=
EXTT3=
EXTT4=
EXTT5=
EXTT6=
EXTT7=
EXTT8=
EXTT9=
EXTT10=
EXTT11=
PLAYORDER=
